# xmcd
#
# Track frame offsets:
#	150
#	13410
#	27987
#	40890
#	55605
#	68072
#	80662
#	93207
#	106405
#	119015
#	132540
#	145685
#	158217
#
# Disc length: 2278 seconds
# Revision: 3
# Processed by: cddbd v1.5.2PL0 Copyright (c) Steve Scherf et al.
# Submitted via: dBpowerAMP V12.0
#
DISCID=b208e40d
DTITLE=Various Artist - The Blues World of Little Walter
DYEAR=1988
DGENRE=Chicago Blues
TTITLE0=Little Walter - I Just Keep Loving Her
TTITLE1=Little Walter - Muskadine Blues
TTITLE2=Baby Face Leroy Trio - Rollin' and Tumblin', Pt. 1
TTITLE3=Baby Face Leroy Trio - Rollin' and Tumblin', Pt. 2
TTITLE4=Baby Face Leroy Trio - Boll Weevil
TTITLE5=Little Walter - Bad Acting Woman
TTITLE6=Baby Face Leroy Trio - Red Headed Woman
TTITLE7=Little Walter - Moonshine Blues
TTITLE8=J.B. Lenoir - I Wanna Play a Little While
TTITLE9=J.B. Lenoir - Louise
TTITLE10=J.B. Lenoir - People Are Meddling (In Our Affairs)
TTITLE11=Sunnyland Slim - I Done You Wrong
TTITLE12=Sunnyland Slim - Low Down Sunnyland Train
EXTD=
EXTT0=
EXTT1=
EXTT2=
EXTT3=
EXTT4=
EXTT5=
EXTT6=
EXTT7=
EXTT8=
EXTT9=
EXTT10=
EXTT11=
EXTT12=
PLAYORDER=
